<svg width="80" height="80" viewBox="0 0 80 80" fill="none" xmlns="http://www.w3.org/2000/svg">
<path d="M56.5998 39.9H54.5998V27.7C54.5998 21.4 48.0998 14 39.6998 14C31.2998 14 24.7998 21.4 24.7998 27.7V38H22.7998V27.7C22.7998 20.4 30.1998 12 39.6998 12C49.1998 12 56.5998 20.4 56.5998 27.7V39.9Z" fill="#ED9C3C"/>
<path d="M32.5 56.3L30.5 55.1V49.5H32.5V56.3Z" fill="#ED9C3C"/>
<path d="M48.9004 54.9L46.9004 56.3V49.5H48.9004V54.9Z" fill="#ED9C3C"/>
<path d="M44.0002 68.3L38.7002 63L49.7002 52L55.0002 57.3L44.0002 68.3ZM41.6002 63L44.1002 65.5L52.3002 57.3L49.8002 54.8L41.6002 63Z" fill="#ED9C3C"/>
<path d="M35.2998 68.1999L24.2998 57.1999L29.5998 51.8999L40.5998 62.8999L35.2998 68.1999ZM27.0998 57.1999L35.2998 65.3999L37.7998 62.8999L29.5998 54.6999L27.0998 57.1999Z" fill="#ED9C3C"/>
<path d="M24.8 42.8999H23.1C20.4 42.8999 18 40.4999 18 37.7999V36.4999C18 33.7999 20.5 31.3999 23.1 31.3999H24.8V42.8999ZM22.8 33.2999C21.4 33.4999 20 34.9999 20 36.3999V37.6999C20 39.0999 21.4 40.5999 22.8 40.7999V33.2999Z" fill="#ED9C3C"/>
<path d="M56.2 42.9002H54.5V31.2002H56.2C59.1 31.2002 61.3 33.5002 61.3 36.3002V37.6002C61.4 40.6002 59.1 42.9002 56.2 42.9002ZM56.6 33.3002V40.9002C58.2 40.7002 59.4 39.4002 59.4 37.8002V36.5002C59.4 34.7002 58.2 33.4002 56.6 33.3002Z" fill="#ED9C3C"/>
<path d="M39.8 55.4002C38.2 55.4002 36.7 55.0002 35.2 54.2002H35.1H35L34.8 54.1002C29.6 51.0002 26.5 45.6002 26.5 39.7002V32.2002H28.5V39.5002C28.5 44.7002 31.2 49.4002 35.7 52.1002H35.8H35.9L36.1 52.2002C38.3 53.5002 41 53.6002 43.2 52.3002C43.3 52.2002 43.4 52.1002 43.6 52.0002C48.1 49.3002 50.7 44.6002 50.7 39.4002V35.9002H52.7V39.4002C52.7 45.2002 49.8 50.5002 44.9 53.6002L44.4 53.9002C43 54.9002 41.4 55.4002 39.8 55.4002Z" fill="#ED9C3C"/>
<path d="M53.6004 37.1002C46.4004 37.1002 32.4004 28.3002 32.4004 20.7002H34.4004C34.4004 26.5002 47.0004 35.1002 53.6004 35.1002V37.1002Z" fill="#ED9C3C"/>
<path d="M28.5 32.2H26.5C27.5 28.9 31.9 24.5 35.3 24.5V26.5C33 26.5 29.3 29.8 28.5 32.2Z" fill="#ED9C3C"/>
<path d="M50.0002 48.5999H42.7002V46.5999H50.0002C51.8002 46.5999 53.3002 45.4999 54.0002 43.8999L54.6002 42.5999V40.8999H56.6002V42.9999L55.8002 44.5999C54.9002 46.9999 52.6002 48.5999 50.0002 48.5999Z" fill="#ED9C3C"/>
<path d="M41.0998 50.5002H38.1998C36.5998 50.5002 35.2998 49.2002 35.2998 47.6002V46.6002C35.2998 45.0002 36.5998 43.7002 38.1998 43.7002H41.0998C42.6998 43.7002 43.9998 45.0002 43.9998 46.6002V47.6002C44.0998 49.2002 42.6998 50.5002 41.0998 50.5002ZM38.1998 45.7002C37.6998 45.7002 37.2998 46.1002 37.2998 46.6002V47.6002C37.2998 48.1002 37.6998 48.5002 38.1998 48.5002H41.0998C41.5998 48.5002 41.9998 48.1002 41.9998 47.6002V46.6002C41.9998 46.1002 41.5998 45.7002 41.0998 45.7002H38.1998Z" fill="#ED9C3C"/>
<g opacity="0.4">
<path opacity="0.4" d="M23.1 41.9002H23.8V32.2002H23.1C21 32.2002 19 34.2002 19 36.3002V37.6002C19 39.8002 21 41.9002 23.1 41.9002Z" fill="#ED9C3C"/>
</g>
<g opacity="0.4">
<path opacity="0.4" d="M56.2 41.9002H55.5V32.2002H56.2C58.5 32.2002 60.3 34.0002 60.3 36.3002V37.6002C60.4 40.0002 58.6 41.9002 56.2 41.9002Z" fill="#ED9C3C"/>
</g>
<g opacity="0.4">
<path opacity="0.4" d="M41.0998 49.5002H38.1998C37.0998 49.5002 36.2998 48.6002 36.2998 47.6002V46.6002C36.2998 45.5002 37.1998 44.7002 38.1998 44.7002H41.0998C42.1998 44.7002 42.9998 45.6002 42.9998 46.6002V47.6002C43.0998 48.7002 42.1998 49.5002 41.0998 49.5002Z" fill="#ED9C3C"/>
</g>
</svg>
