<svg width="59" height="73" viewBox="0 0 59 73" fill="none" xmlns="http://www.w3.org/2000/svg">
<path d="M58.6 16.2L42.5 0.3C42.3 0.1 42 0 41.7 0H12.1C7.6 0 3.9 3.8 3.9 8.6V40.2H0V61.6H3.9V63.5C3.9 68.2 7.5 72.1 12 72.1H50.8C55.3 72.1 58.9 68.3 58.9 63.5V17.1C59 16.7 58.8 16.4 58.6 16.2ZM41.3 2.6L55.3 16.4H47.7C44.2 16.4 41.3 13.6 41.3 10.2V2.6ZM56.5 63.4C56.5 66.7 54 69.4 50.8 69.4H12.1C9 69.4 6.4 66.7 6.4 63.4V61.5H33.3C38.6 61.5 42.8 56.7 42.8 50.8C42.8 44.9 38.5 40.1 33.3 40.1H6.4V8.6C6.4 5.3 8.9 2.6 12.1 2.6H38.9V10.2C38.9 15.1 42.8 19 47.7 19H56.6V63.4H56.5Z" fill="#FFB800"/>
<path d="M13.6927 51.9796H9.51679V56.3765H7.71387V46.0007H14.3056V47.4545H9.51679V50.5401H13.6927V51.9796Z" fill="white"/>
<path d="M17.6407 56.3765H15.8449V46.0007H17.6407V56.3765Z" fill="white"/>
<path d="M21.6598 54.937H26.3702V56.3765H19.8569V46.0007H21.6598V54.937Z" fill="white"/>
<path d="M33.8171 51.7444H29.5557V54.937H34.5369V56.3765H27.7527V46.0007H34.487V47.4545H29.5557V50.3192H33.8171V51.7444Z" fill="white"/>
</svg>
