<svg width="59" height="72" viewBox="0 0 59 72" fill="none" xmlns="http://www.w3.org/2000/svg">
<g clip-path="url(#clip0)">
<path d="M58.6 16.2L42.5 0.3C42.3 0.1 42 0 41.7 0H12.1C7.6 0 3.9 3.8 3.9 8.6V40.2H0V61.6H3.9V63.5C3.9 68.2 7.5 72.1 12 72.1H50.8C55.3 72.1 58.9 68.3 58.9 63.5V17.1C59 16.7 58.8 16.4 58.6 16.2ZM41.3 2.6L55.3 16.4H47.7C44.2 16.4 41.3 13.6 41.3 10.2V2.6ZM56.5 63.4C56.5 66.7 54 69.4 50.8 69.4H12.1C9 69.4 6.4 66.7 6.4 63.4V61.5H33.3C38.6 61.5 42.8 56.7 42.8 50.8C42.8 44.9 38.5 40.1 33.3 40.1H6.4V8.6C6.4 5.3 8.9 2.6 12.1 2.6H38.9V10.2C38.9 15.1 42.8 19 47.7 19H56.6V63.4H56.5Z" fill="#FFB800"/>
<path d="M9.99813 56.645H8.10938V45.7322H9.99813V56.645Z" fill="white"/>
<path d="M14.7875 45.7322L17.9354 54.0967L21.0758 45.7322H23.5267V56.645H21.638V53.0474L21.8253 48.2355L18.6025 56.645H17.2459L14.0305 48.243L14.2179 53.0474V56.645H12.3291V45.7322H14.7875Z" fill="white"/>
<path d="M34.1397 55.2284C33.745 55.7431 33.1979 56.1328 32.4983 56.3977C31.7988 56.6625 31.0043 56.7949 30.1149 56.7949C29.2005 56.7949 28.391 56.5875 27.6865 56.1728C26.982 55.7581 26.4373 55.166 26.0526 54.3965C25.6728 53.622 25.4754 52.7201 25.4605 51.6908V50.8363C25.4605 49.1874 25.8552 47.9007 26.6447 46.9764C27.4342 46.047 28.5359 45.5823 29.95 45.5823C31.1642 45.5823 32.1286 45.8821 32.8431 46.4817C33.5576 47.0813 33.9873 47.9457 34.1322 49.075H32.2735C32.0636 47.7608 31.3016 47.1038 29.9875 47.1038C29.138 47.1038 28.491 47.4111 28.0463 48.0257C27.6065 48.6353 27.3792 49.5322 27.3642 50.7164V51.5558C27.3642 52.7351 27.6115 53.652 28.1062 54.3065C28.6059 54.9561 29.2979 55.2809 30.1823 55.2809C31.1517 55.2809 31.8413 55.061 32.251 54.6213V52.4852H30.0025V51.0462H34.1397V55.2284Z" fill="white"/>
</g>
<defs>
<clipPath id="clip0">
<rect width="59" height="72" fill="white"/>
</clipPath>
</defs>
</svg>
