<svg width="80" height="80" viewBox="0 0 80 80" fill="none" xmlns="http://www.w3.org/2000/svg">
<path class="grey" d="M11.7004 46.7998H8.90039V48.7998H11.7004V46.7998Z" fill="#CECECE"/>
<path class="grey" d="M18.2004 46.7998H15.4004V48.7998H18.2004V46.7998Z" fill="#CECECE"/>
<path class="grey" d="M14.5 49.6001H12.5V52.4001H14.5V49.6001Z" fill="#CECECE"/>
<path class="grey" d="M14.5 43.2002H12.5V46.0002H14.5V43.2002Z" fill="#CECECE"/>
<path class="grey" d="M13.706 19.4885L11.8701 21.3296L13.2863 22.7418L15.1222 20.9007L13.706 19.4885Z" fill="#CECECE"/>
<path class="grey" d="M18.2988 14.8782L16.4629 16.7192L17.8791 18.1314L19.715 16.2904L18.2988 14.8782Z" fill="#CECECE"/>
<path class="grey" d="M17.881 19.477L16.4648 20.8892L18.3007 22.7302L19.7169 21.318L17.881 19.477Z" fill="#CECECE"/>
<path class="grey" d="M13.2834 14.8896L11.8672 16.3018L13.703 18.1428L15.1192 16.7306L13.2834 14.8896Z" fill="#CECECE"/>
<path class="grey" d="M60.4004 11H58.4004V12.8H60.4004V11Z" fill="#CECECE"/>
<path class="grey" d="M60.4004 14.7002H58.4004V16.5002H60.4004V14.7002Z" fill="#CECECE"/>
<path class="grey" d="M58.3996 12.7998H56.5996V14.7998H58.3996V12.7998Z" fill="#CECECE"/>
<path class="grey" d="M62.0998 12.7998H60.2998V14.7998H62.0998V12.7998Z" fill="#CECECE"/>
<path class="grey" d="M31.9004 21.0998H29.9004V11.7998H51.2004V15.5998H49.2004V13.7998H31.9004V21.0998Z" fill="#CECECE"/>
<g opacity="0.4">
<path opacity="0.4" d="M37.4004 18.3998V23.8998H43.8004V30.2998H55.7004V18.2998H37.4004V18.3998Z" fill="#ED9C3C"/>
</g>
<path d="M36.3998 17.3999V22.8999H26.2998V30.2999H28.2998V24.8999H36.3998H42.7998V30.2999H44.7998V22.8999H38.3998V19.3999H54.6998V30.2999H56.6998V17.3999H36.3998Z" fill="#ED9C3C"/>
<path class="grey" d="M33.7998 35.7998H31.7998V48.6998H33.7998V35.7998Z" fill="#CECECE"/>
<path class="grey" d="M41.0996 35.7998H39.0996V48.6998H41.0996V35.7998Z" fill="#CECECE"/>
<path class="grey" d="M48.4004 35.7998H46.4004V48.6998H48.4004V35.7998Z" fill="#CECECE"/>
<path class="grey" d="M50.2 44H30V46H50.2V44Z" fill="#CECECE"/>
<path class="grey" d="M52.0998 38.5H27.2998V40.5H52.0998V38.5Z" fill="#CECECE"/>
<path d="M60.6 33.1998C60.1 32.4998 59.3 32.0998 58.4 32.0998H22.7V34.0998H58.5C58.7 34.0998 58.9 34.1998 59.1 34.3998C59.2 34.4998 59.2 34.5998 59.2 34.6998L54.5 48.8998C54 50.3998 52.7 51.2998 51.1 51.2998H27.7C25.3 45.7998 21.6 37.0998 19.1 31.1998C18.3 29.4998 16.5 28.2998 14.6 28.2998H8V30.2998H14.6C15.7 30.2998 16.8 30.9998 17.3 31.9998C19 35.9998 27.5 55.8998 28.2 57.2998C28.9 58.7998 30.2 59.6998 31.9 59.6998H53V57.6998H31.9C31.1 57.6998 30.4 57.2998 30 56.3998C29.9 56.0998 29.3 54.9998 28.6 53.1998H51.1C53.5 53.1998 55.6 51.6998 56.4 49.3998L61.1 35.0998C61.2 34.5998 61.1 33.7998 60.6 33.1998Z" fill="#ED9C3C"/>
<path d="M30.0002 68.1C27.9002 68.1 26.2002 66.4 26.2002 64.3C26.2002 62.2 27.9002 60.5 30.0002 60.5C32.1002 60.5 33.8002 62.2 33.8002 64.3C33.8002 66.4 32.1002 68.1 30.0002 68.1ZM30.0002 62.6C29.0002 62.6 28.2002 63.4 28.2002 64.4C28.2002 65.4 29.0002 66.2 30.0002 66.2C31.0002 66.2 31.8002 65.4 31.8002 64.4C31.8002 63.4 31.0002 62.6 30.0002 62.6Z" fill="#ED9C3C"/>
<path d="M51.2004 68.1C49.1004 68.1 47.4004 66.4 47.4004 64.3C47.4004 62.2 49.0004 60.5 51.2004 60.5C53.3004 60.5 55.0004 62.2 55.0004 64.3C54.9004 66.4 53.3004 68.1 51.2004 68.1ZM51.2004 62.6C50.2004 62.6 49.4004 63.4 49.4004 64.4C49.4004 65.4 50.2004 66.2 51.2004 66.2C52.2004 66.2 53.0004 65.4 53.0004 64.4C52.9004 63.4 52.2004 62.6 51.2004 62.6Z" fill="#ED9C3C"/>
</svg>
