<svg width="80" height="80" viewBox="0 0 80 80" fill="none" xmlns="http://www.w3.org/2000/svg">
<path d="M58 12.7002H56V18.4002H58V12.7002Z" fill="#ED9C3C"/>
<path d="M62.5894 14.2237L59.9844 18.4912L61.6914 19.5332L64.2964 15.2657L62.5894 14.2237Z" fill="#ED9C3C"/>
<path d="M67.7096 18.5008L63.2344 20.9463L64.1934 22.7013L68.6686 20.2558L67.7096 18.5008Z" fill="#ED9C3C"/>
<path d="M70 25H65V27H70V25Z" fill="#ED9C3C"/>
<path class="grey" d="M15.5 15.6C13.1 15.6 11 13.7 11 11.3C11 8.9 13 7 15.5 7C18 7 20 8.9 20 11.3C20 13.7 17.9 15.6 15.5 15.6ZM15.5 9C14.1 9 13 10 13 11.3C13 12.6 14.1 13.6 15.5 13.6C16.9 13.6 18 12.6 18 11.3C18 10 16.9 9 15.5 9Z" fill="#CECECE"/>
<path class="grey" d="M32 15.5002H30V13.7002H28V15.5002H26V17.5002H28V19.4002H30V17.5002H32V15.5002Z" fill="#CECECE"/>
<path class="grey" d="M10 26.8999H8V32.5999H10V26.8999Z" fill="#ED9C3C"/>
<path class="grey" d="M12 28.7998H6V30.7998H12V28.7998Z" fill="#ED9C3C"/>
<path class="grey" d="M12 28.7999H10V26.8999H8V28.7999H6V30.7999H8V32.5999H10V30.7999H12V28.7999Z" fill="#CECECE"/>
<path d="M60 30.7H58V26H48V24H60V30.7ZM19 27.9H17C17 25.7 18.8 24.1 21 24.1H31.5V26.1H21C19.9 26 19 26.8 19 27.9Z" fill="#ED9C3C"/>
<g opacity="0.4">
<path opacity="0.4" d="M54.1004 30.6999H47.0004L42.1004 26.0999C40.7004 27.3999 39.3004 27.3999 37.9004 26.0999L33.0004 30.6999H25.9004L40.0004 17.3999L54.1004 30.6999Z" fill="#ED9C3C"/>
</g>
<path d="M53.4002 31.5L40.0002 18.8L26.6002 31.5L25.2002 30L40.0002 16L54.8002 30L53.4002 31.5Z" fill="#ED9C3C"/>
<path d="M49.5 31.7002H30.5L37.9 24.7002L38.6 25.4002C39.6 26.4002 40.4 26.4002 41.4 25.4002L42.1 24.7002L49.5 31.7002ZM35.5 29.7002H44.5L42 27.4002C40.7 28.3002 39.2 28.3002 37.9 27.4002L35.5 29.7002Z" fill="#ED9C3C"/>
<path d="M21 29.6999C19.9 29.6999 19 28.8999 19 27.8999H17V56.2999C17 58.4999 18.8 60.0999 21 60.0999H65V48.6999H63V58.1999H21C19.9 58.1999 19 57.3999 19 56.3999V31.1999C19.6 31.4999 20.3 31.6999 21 31.6999H63V40.1999H65V29.6999H21Z" fill="#ED9C3C"/>
<path d="M65 38.2002H50.5C47 38.2002 44 41.1002 44 44.4002C44 47.8002 47 50.6002 50.5 50.6002H65C66.7 50.6002 68 49.3002 68 47.7002V41.1002C68 39.5002 66.7 38.2002 65 38.2002ZM66 47.8002C66 48.3002 65.5 48.7002 65 48.7002H50.5C48.1 48.7002 46 46.8002 46 44.5002C46 42.2002 48.1 40.3002 50.5 40.3002H65C65.5 40.3002 66 40.7002 66 41.2002V47.8002Z" fill="#ED9C3C"/>
<g opacity="0.4">
<path opacity="0.4" d="M65 39.6001H50.5C47.5 39.6001 45 41.6001 45 44.1001C45 46.6001 47.5 48.6001 50.5 48.6001H65C66.1 48.6001 67 47.9001 67 47.0001V41.3001C67 40.3001 66.1 39.6001 65 39.6001ZM51.5 43.1001C52.3 43.1001 53 43.7001 53 44.5001C53 45.3001 52.3 45.9001 51.5 45.9001C50.7 45.9001 50 45.2001 50 44.5001C50 43.7001 50.7 43.1001 51.5 43.1001Z" fill="#ED9C3C"/>
<path opacity="0.4" d="M65 38.6001H50.5C46.9 38.6001 44 41.1001 44 44.1001C44 47.1001 46.9 49.6001 50.5 49.6001H65C66.7 49.6001 68 48.4001 68 47.0001V41.3001C68 39.8001 66.7 38.6001 65 38.6001ZM66 47.0001C66 47.3001 65.6 47.6001 65 47.6001H50.5C50.4 47.6001 50.3 47.6001 50.2 47.6001C47.9 47.5001 46 45.9001 46 44.1001C46 42.2001 48.1 40.6001 50.5 40.6001H65C65.6 40.6001 66 40.9001 66 41.2001V47.0001Z" fill="#ED9C3C"/>
</g>
<path  class="white" d="M51.5 42.1001C50.1 42.1001 49 43.1001 49 44.5001C49 45.8001 50.1 46.9001 51.5 46.9001C52.9 46.9001 54 45.9001 54 44.5001C54 43.1001 52.9 42.1001 51.5 42.1001ZM51.5 45.8001C50.7 45.8001 50 45.2001 50 44.4001C50 43.6001 50.7 43.0001 51.5 43.0001C52.3 43.0001 53 43.6001 53 44.4001C53 45.2001 52.3 45.8001 51.5 45.8001Z" fill="white"/>
<path d="M51.5004 41.5C49.8004 41.5 48.4004 42.8 48.4004 44.5C48.4004 45.8 49.2004 46.8 50.3004 47.3C50.7004 47.4 51.0004 47.5 51.4004 47.5C51.8004 47.5 52.2004 47.4 52.5004 47.3C53.7004 46.9 54.5004 45.8 54.5004 44.5C54.6004 42.8 53.2004 41.5 51.5004 41.5ZM51.5004 45.7C50.8004 45.7 50.2004 45.2 50.2004 44.5C50.2004 43.8 50.8004 43.3 51.5004 43.3C52.2004 43.3 52.8004 43.8 52.8004 44.5C52.8004 45.1 52.2004 45.7 51.5004 45.7Z" fill="#ED9C3C"/>
</svg>
