<svg width="133" height="133" viewBox="0 0 133 133" fill="none" xmlns="http://www.w3.org/2000/svg">
<path d="M123.974 1.5H98.4561C95.3022 1.50011 92.6555 4.14698 92.6553 7.30078C92.6553 16.5175 91.2335 25.4467 88.457 33.7852H88.4561C87.8093 35.8434 88.2721 38.1197 89.8369 39.7725L104.148 51.958L105.029 52.708L104.528 53.75C93.9752 75.6795 74.1754 94.7279 53.0088 104.825L51.9326 105.338L51.1895 104.406L39.6758 89.959C38.0853 88.4019 35.8325 87.9022 33.8213 88.5918L33.7979 88.5996C25.4676 91.3013 16.5349 92.8027 7.30078 92.8027C4.147 92.803 1.50013 95.4497 1.5 98.6035V124.048C1.50006 125.854 1.96517 127.705 2.91504 129.059C3.82197 130.351 5.20084 131.25 7.30078 131.25C74.9129 131.25 131.25 74.9855 131.25 7.30078C131.25 5.04984 130.313 3.68635 129.021 2.82324C127.651 1.90731 125.78 1.5 123.974 1.5Z" fill="#1E51D7" stroke="black" stroke-width="3"/>
</svg>
