<svg width="133" height="133" viewBox="0 0 133 133" fill="none" xmlns="http://www.w3.org/2000/svg">
<path d="M7.30125 91.3025C16.3725 91.3025 25.1488 89.8275 33.335 87.1725C35.9163 86.2875 38.7925 86.9513 40.7837 88.9425L52.3625 103.471C73.2338 93.515 92.7775 74.7087 103.176 53.1L88.795 40.8575C86.8037 38.7925 86.2138 35.9162 87.025 33.335C89.7538 25.1487 91.155 16.3725 91.155 7.30125C91.155 3.31875 94.4737 0 98.4562 0H123.974C127.956 0 132.75 1.77 132.75 7.30125C132.75 75.815 75.7412 132.75 7.30125 132.75C2.065 132.75 0 128.104 0 124.047V98.6038C0 94.6213 3.31875 91.3025 7.30125 91.3025Z" fill="black"/>
</svg>
