<svg width="100" height="100" viewBox="0 0 100 100" fill="none" xmlns="http://www.w3.org/2000/svg">
<circle cx="50" cy="50" r="50" fill="#304489"/>
<path d="M74.3682 22.5962H63.6797C62.0999 22.5962 60.7812 23.9149 60.7812 25.4946C60.7812 29.3096 60.1918 33.0017 59.0439 36.4468V36.4478C58.722 37.472 58.9548 38.6113 59.7412 39.4321L65.7607 44.5571L65.8545 44.6382L65.8008 44.7495C61.4282 53.8355 53.2139 61.7386 44.4395 65.9243L44.3242 65.98L44.2451 65.8804L39.4004 59.8003C38.6092 59.0141 37.4716 58.7546 36.4521 59.104L36.4492 59.105C33.0047 60.2221 29.3114 60.8433 25.4941 60.8433C23.9147 60.8434 22.5969 62.1613 22.5967 63.7407V74.3999C22.5967 75.2255 22.8069 76.1019 23.2734 76.7671C23.7357 77.4258 24.4529 77.8842 25.4941 77.8843C54.0752 77.8843 77.8847 54.1064 77.8848 25.4946C77.8848 24.3911 77.4104 23.6761 76.7432 23.23C76.0674 22.7783 75.1826 22.5962 74.3682 22.5962Z" fill="white" stroke="#304489" stroke-width="0.320513"/>
</svg>
