<svg width="80" height="80" viewBox="0 0 80 80" fill="none" xmlns="http://www.w3.org/2000/svg">
<path class="grey" d="M47.0004 17.6H34.5004L34.2004 17C33.8004 16.1 32.8004 15.5 31.9004 15.5C31.4004 15.5 31.3004 15.5 31.0004 15.6L30.0004 16.1L29.6004 15.1C28.9004 13.2 27.2004 12 25.3004 12C22.7004 12 20.6004 14.8 20.6004 16.6V17.6H8.40039V15.6H18.7004C19.3004 12.9 22.0004 10 25.3004 10C27.7004 10 30.0004 11.4 31.1004 13.5C31.4004 13.5 31.6004 13.5 31.9004 13.5C33.5004 13.5 35.0004 14.4 35.8004 15.7H47.0004V17.6Z" fill="#CECECE"/>
<path class="grey" d="M75.8998 23.6998H70.5998L70.2998 23.2998C69.9998 22.7998 68.6998 21.1998 66.7998 21.3998L66.1998 21.4998L65.8998 20.8998C65.2998 19.8998 64.0998 18.7998 62.3998 18.7998C60.0998 18.7998 58.4998 20.7998 58.4998 22.5998V23.5998H45.7998V21.5998H56.4998C56.9998 18.8998 59.4998 16.7998 62.2998 16.7998C64.1998 16.7998 65.9998 17.7998 67.1998 19.3998C68.7998 19.3998 70.3998 20.1998 71.5998 21.6998H75.8998V23.6998Z" fill="#CECECE"/>
<g opacity="0.4">
<path opacity="0.4" d="M74.6996 57.5002C74.6996 56.1002 75.2996 50.9002 71.7996 50.1002C71.5996 49.5002 70.1996 46.7002 69.0996 44.3002C68.0996 42.1002 65.7996 40.7002 63.3996 40.7002H54.0996V63.5002H58.6996C58.6996 63.2002 58.7996 62.8002 58.7996 62.5002C59.1996 60.9002 60.6996 59.7002 62.4996 59.7002C64.2996 59.7002 65.7996 60.9002 66.1996 62.5002C66.2996 62.8002 66.2996 63.2002 66.2996 63.5002H74.0996C74.0996 63.5002 75.7996 62.4002 75.7996 61.1002C75.8996 59.9002 76.1996 58.0002 74.6996 57.5002ZM65.3996 51.5002H58.9996V45.5002H63.4996C63.8996 45.5002 64.1996 45.6002 64.2996 46.0002L66.1996 50.2002C66.5996 50.8002 66.0996 51.5002 65.3996 51.5002Z" fill="#ED9C3C"/>
</g>
<path d="M58.9992 62.5C58.8992 62.8 58.8992 63.2 58.8992 63.5C58.8992 63.9 58.9992 64.2 58.9992 64.5H54.1992V62.5H58.9992Z" fill="#ED9C3C"/>
<path d="M76.8996 60.6002C76.8996 60.8002 76.8996 61.0002 76.8996 61.1002C76.8996 62.9002 74.9996 64.2002 74.7996 64.4002L74.4996 64.6002H66.2996C66.3996 64.3002 66.3996 64.0002 66.3996 63.6002C66.3996 63.3002 66.3996 62.9002 66.2996 62.6002H73.8996C74.3996 62.2002 74.8996 61.6002 74.8996 61.2002C74.8996 61.0002 74.8996 60.8002 74.8996 60.6002C74.9996 59.1002 74.8996 58.7002 74.3996 58.6002L73.5996 58.4002V57.6002C73.5996 57.4002 73.5996 57.2002 73.5996 57.0002C73.6996 54.4002 73.4996 51.6002 71.4996 51.1002L70.9996 50.9002L70.7996 50.4002C70.6996 50.1002 70.2996 49.2002 69.7996 48.2002C69.2996 47.1002 68.6996 45.9002 68.1996 44.7002C67.3996 42.9002 65.4996 41.7002 63.3996 41.7002H54.0996V39.7002H63.3996C66.1996 39.7002 68.8996 41.4002 69.9996 43.9002C70.4996 45.1002 71.0996 46.3002 71.5996 47.4002C71.9996 48.2002 72.2996 48.9002 72.4996 49.3002C75.7996 50.5002 75.7996 54.9002 75.6996 56.9002C76.9996 57.7002 76.8996 59.5002 76.8996 60.6002Z" fill="#ED9C3C"/>
<path d="M65.4 52.5H58V44.5H63.5C64.4 44.5 65 44.9 65.3 45.6L67.2 49.7C67.5 50.3 67.5 50.9 67.2 51.5C66.8 52.1 66.1 52.5 65.4 52.5ZM60 50.5H65.3L63.5 46.5H60.1V50.5H60Z" fill="#ED9C3C"/>
<path d="M22.7996 62.4997C22.6996 62.7997 22.6996 63.1997 22.6996 63.4997C22.6996 63.8997 22.6996 64.1997 22.7996 64.4997H14.5996V52.6997H16.5996V62.4997H22.7996Z" fill="#ED9C3C"/>
<path d="M55.1992 28.8999V64.5999H30.1992C30.2992 64.2999 30.2992 63.9999 30.2992 63.5999C30.2992 63.2999 30.2992 62.8999 30.1992 62.5999H53.1992V30.8999H16.6992V39.4999H14.6992V28.8999H55.1992Z" fill="#ED9C3C"/>
<path d="M16.7002 43.1001H14.7002V50.3001H16.7002V43.1001Z" fill="#ED9C3C"/>
<path d="M32.2002 62.5002C31.7002 59.8002 29.3002 57.7002 26.5002 57.7002C23.6002 57.7002 21.2002 59.8002 20.8002 62.5002C20.7002 62.8002 20.7002 63.2002 20.7002 63.5002C20.7002 63.8002 20.7002 64.2002 20.8002 64.5002C21.3002 67.2002 23.7002 69.3002 26.5002 69.3002C29.4002 69.3002 31.8002 67.2002 32.2002 64.5002C32.3002 64.2002 32.3002 63.8002 32.3002 63.5002C32.3002 63.2002 32.3002 62.8002 32.2002 62.5002ZM26.5002 67.3002C24.7002 67.3002 23.3002 66.1002 22.8002 64.5002C22.7002 64.2002 22.7002 63.9002 22.7002 63.5002C22.7002 63.2002 22.7002 62.8002 22.8002 62.5002C23.2002 60.9002 24.7002 59.7002 26.5002 59.7002C28.3002 59.7002 29.8002 60.9002 30.2002 62.5002C30.3002 62.8002 30.3002 63.2002 30.3002 63.5002C30.3002 63.9002 30.3002 64.2002 30.2002 64.5002C29.7002 66.1002 28.3002 67.3002 26.5002 67.3002Z" fill="#ED9C3C"/>
<path d="M68.4004 62.5002C67.9004 59.8002 65.5004 57.7002 62.7004 57.7002C59.8004 57.7002 57.4004 59.8002 57.0004 62.5002C56.9004 62.8002 56.9004 63.2002 56.9004 63.5002C56.9004 63.8002 56.9004 64.2002 57.0004 64.5002C57.5004 67.2002 59.9004 69.3002 62.7004 69.3002C65.6004 69.3002 68.0004 67.2002 68.4004 64.5002C68.5004 64.2002 68.5004 63.8002 68.5004 63.5002C68.4004 63.2002 68.4004 62.8002 68.4004 62.5002ZM62.6004 67.3002C60.8004 67.3002 59.4004 66.1002 58.9004 64.5002C58.8004 64.2002 58.8004 63.9002 58.8004 63.5002C58.8004 63.2002 58.9004 62.8002 58.9004 62.5002C59.3004 60.9002 60.8004 59.7002 62.6004 59.7002C64.4004 59.7002 65.9004 60.9002 66.3004 62.5002C66.4004 62.8002 66.4004 63.2002 66.4004 63.5002C66.4004 63.9002 66.4004 64.2002 66.3004 64.5002C65.9004 66.1002 64.4004 67.3002 62.6004 67.3002Z" fill="#ED9C3C"/>
<path d="M27.6998 48.5H4.7998V50.5H27.6998V48.5Z" fill="#ED9C3C"/>
<path d="M40.8998 38.5H10.7998V40.5H40.8998V38.5Z" fill="#ED9C3C"/>
<path d="M48.0998 28.8999H10.7998V30.8999H48.0998V28.8999Z" fill="#ED9C3C"/>
<path d="M8.4 28.8999H6V30.8999H8.4V28.8999Z" fill="#ED9C3C"/>
<path d="M3.6002 28.8999H1.2002V30.8999H3.6002V28.8999Z" fill="#ED9C3C"/>
<path d="M2.4 48.5H0V50.5H2.4V48.5Z" fill="#ED9C3C"/>
<path d="M8.4 38.5H6V40.5H8.4V38.5Z" fill="#ED9C3C"/>
</svg>
