<svg width="80" height="80" viewBox="0 0 80 80" fill="none" xmlns="http://www.w3.org/2000/svg">
<path d="M61 59H32V61H61V59Z" fill="#ED9C3C"/>
<path d="M67 61H63V59H65V57H67V61Z" fill="#ED9C3C"/>
<path d="M67 26H65V55H67V26Z" fill="#ED9C3C"/>
<path d="M67 24H65V22H63V20H67V24Z" fill="#ED9C3C"/>
<path d="M61 20H19V22H61V20Z" fill="#ED9C3C"/>
<path d="M15 24H13V20H17V22H15V24Z" fill="#ED9C3C"/>
<path d="M18 61H13V26H15V59H18V61Z" fill="#ED9C3C"/>
<path d="M49.4 57.0999C48.3 57.0999 47.3 56.4999 46.5 55.8999C45.8 55.4999 45.2 55.0999 44.6 55.0999C44 55.0999 43.4 55.4999 42.7 55.8999C41.9 56.3999 40.9 56.9999 39.8 56.9999C38.7 56.9999 37.7 56.3999 36.9 55.7999C36.2 55.3999 35.6 54.9999 35 54.9999H34V52.9999H35C36.1 52.9999 37.1 53.5999 37.9 54.1999C38.6 54.5999 39.2 54.9999 39.8 54.9999C40.4 54.9999 41 54.5999 41.7 54.1999C42.5 53.6999 43.5 53.0999 44.6 53.0999C45.7 53.0999 46.7 53.6999 47.5 54.2999C48.2 54.6999 48.8 55.0999 49.4 55.0999C50 55.0999 50.6 54.6999 51.3 54.2999C52.1 53.7999 53.1 53.0999 54.2 53.0999C55 53.0999 56.2 53.4999 57.5 53.9999C58.5 54.3999 60.4 55.0999 61 54.8999C61.1 54.3999 60.4 52.9999 60.1 52.1999C59.6 50.9999 59.1 49.9999 59.1 49.1999C59.1 48.0999 59.7 47.2999 60.3 46.4999C60.7 45.8999 61.1 45.2999 61.1 44.7999C61.1 44.2999 60.7 43.7999 60.3 43.1999C59.7 42.3999 59.1 41.5999 59.1 40.4999C59.1 39.3999 59.7 38.4999 60.3 37.7999C60.7 37.1999 61.1 36.6999 61.1 36.1999C61.1 35.7999 60.7 35.1999 60.3 34.5999C59.7 33.7999 59.1 32.8999 59.1 31.7999C59.1 30.9999 59.5 29.9999 60.1 28.8999C60.5 28.0999 61.2 26.4999 61 26.0999C60.5 25.8999 58.6 26.6999 57.5 27.0999C56.2 27.5999 55 28.0999 54.2 28.0999C53 28.0999 52.1 27.4999 51.2 26.8999C50.5 26.3999 49.9 25.9999 49.4 25.9999C48.9 25.9999 48.2 26.3999 47.6 26.8999C46.8 27.4999 45.8 28.0999 44.6 28.0999C43.4 28.0999 42.5 27.4999 41.6 26.8999C41 26.3999 40.3 25.9999 39.8 25.9999C39.3 25.9999 38.6 26.3999 38 26.8999C37.2 27.4999 36.2 28.0999 35 28.0999C33.8 28.0999 32.9 27.4999 32 26.8999C31.3 26.3999 30.7 25.9999 30.2 25.9999C29.7 25.9999 29 26.3999 28.4 26.8999C27.6 27.4999 26.6 28.0999 25.4 28.0999C24.5 28.0999 23.4 27.5999 22.2 27.0999C21.3 26.6999 19.5 25.8999 19.1 26.0999C18.9 26.4999 19.6 28.0999 20 28.7999C20.5 29.8999 21 30.8999 21 31.7999C21 32.8999 20.4 33.7999 19.8 34.5999C19.4 35.1999 19 35.6999 19 36.1999C19 36.5999 19.3 36.9999 19.7 37.3999L18.3 38.7999C17.9 38.3999 17 37.4999 17 36.1999C17 35.0999 17.6 34.1999 18.2 33.3999C18.6 32.7999 19 32.2999 19 31.7999C19 31.3999 18.5 30.4999 18.2 29.6999C17.3 27.8999 16.3 25.7999 17.8 24.5999C19 23.4999 21.1 24.2999 23 25.1999C23.9 25.5999 25 25.9999 25.4 25.9999C25.9 25.9999 26.6 25.5999 27.2 25.0999C28 24.4999 29 23.8999 30.2 23.8999C31.4 23.8999 32.3 24.4999 33.2 25.0999C33.9 25.5999 34.5 25.9999 35 25.9999C35.5 25.9999 36.2 25.5999 36.8 25.0999C37.6 24.4999 38.6 23.8999 39.8 23.8999C41 23.8999 41.9 24.4999 42.8 25.0999C43.5 25.5999 44.1 25.9999 44.6 25.9999C45.1 25.9999 45.8 25.5999 46.4 25.0999C47.2 24.4999 48.2 23.8999 49.4 23.8999C50.6 23.8999 51.5 24.4999 52.4 25.0999C53.1 25.5999 53.7 25.9999 54.2 25.9999C54.7 25.9999 55.8 25.4999 56.8 25.1999C59.1 24.2999 61.3 23.3999 62.5 24.6999C63.7 25.8999 62.8 27.8999 62 29.6999C61.7 30.3999 61.2 31.3999 61.2 31.7999C61.2 32.2999 61.6 32.8999 62 33.4999C62.5 34.2999 63.2 35.0999 63.2 36.1999C63.2 37.2999 62.6 38.1999 62 38.8999C61.6 39.4999 61.2 39.9999 61.2 40.4999C61.2 40.9999 61.6 41.4999 62 42.0999C62.6 42.8999 63.2 43.6999 63.2 44.7999C63.2 45.8999 62.6 46.7999 62 47.5999C61.6 48.1999 61.2 48.6999 61.2 49.1999C61.2 49.5999 61.6 50.5999 62 51.3999C62.9 53.2999 63.7 55.2999 62.5 56.3999C61.4 57.4999 59.3 56.6999 57 55.8999C56 55.4999 54.8 55.0999 54.4 55.0999C53.8 55.0999 53.2 55.4999 52.5 55.8999C51.5 56.4999 50.5 57.0999 49.4 57.0999Z" fill="#ED9C3C"/>
<path d="M33 45C33 40.6 29.4 37 25 37C20.6 37 17 40.6 17 45C17 47.5 18.2 49.8 20 51.2V66C20 66.4 20.2 66.7 20.6 66.9C20.9 67.1 21.3 67 21.6 66.8L25 64.3L28.4 66.8C28.6 66.9 28.8 67 29 67C29.2 67 29.3 67 29.4 66.9C29.7 66.7 30 66.4 30 66V51.2C31.8 49.8 33 47.5 33 45ZM19 45C19 41.7 21.7 39 25 39C28.3 39 31 41.7 31 45C31 48.3 28.3 51 25 51C21.7 51 19 48.3 19 45ZM28 64L25.6 62.2C25.2 61.9 24.8 61.9 24.4 62.2L22 64V52.4C22.9 52.8 23.9 53 25 53C26.1 53 27.1 52.8 28 52.4V64Z" fill="#ED9C3C"/>
<g opacity="0.4">
<path opacity="0.4" d="M25 52C28.9 52 32 48.9 32 45C32 41.1 28.9 38 25 38C21.1 38 18 41.1 18 45C18 48.9 21.1 52 25 52Z" fill="#ED9C3C"/>
</g>
<path d="M52 35H36V37H52V35Z" fill="#ED9C3C"/>
<path d="M52 39H36V41H52V39Z" fill="#ED9C3C"/>
<path d="M47 43H36V45H47V43Z" fill="#ED9C3C"/>
</svg>
